<svg width="548" height="151" viewBox="0 0 548 151" fill="none" xmlns="http://www.w3.org/2000/svg">
<path d="M124.347 48.9693H143.874L134.494 24.2746L124.347 48.9693ZM145.267 52.6349H122.84L119.836 59.9449C118.64 62.8504 118.047 64.9583 118.047 66.2741C118.047 68.1561 119.82 69.0998 123.364 69.0998H127.293V72.5528H104.352V69.0998H106.423C109.148 69.0998 110.99 68.6372 111.944 67.7148C112.904 66.7898 114.073 64.6446 115.456 61.2794L140.437 0H143.513L169.68 69.0998H177.059V72.5528H142.006V69.0998H151.525L145.267 52.6349ZM223.495 25.4389L252.94 69.0998H261.22V72.5528H223.777V69.0998H232.499L209.758 35.0802L233.389 10.8853C235.335 8.90229 236.311 7.45092 236.311 6.53384C236.311 5.36424 234.928 4.78209 232.166 4.78209H227.392V1.3291H254.583V4.78209H251.874C248.69 4.78209 246.191 5.19677 244.389 6.02613C242.581 6.8608 239.891 9.06444 236.324 12.6397L223.495 25.4389ZM209.117 4.78209V69.0998H218.152V72.5528H182.352V69.0998H191.698V4.78209H182.352V1.3291H218.152V4.78209H209.117ZM283.642 48.9693H303.169L293.789 24.2746L283.642 48.9693ZM304.562 52.6349H282.138L279.134 59.9449C277.935 62.8504 277.345 64.9583 277.345 66.2741C277.345 68.1561 279.115 69.0998 282.659 69.0998H286.588V72.5528H263.647V69.0998H265.718C268.443 69.0998 270.285 68.6372 271.239 67.7148C272.199 66.7898 273.368 64.6446 274.751 61.2794L299.732 0H302.808L328.975 69.0998H336.354V72.5528H301.301V69.0998H310.82L304.562 52.6349ZM367.62 4.78209V32.7702H374.364C379.037 32.7702 382.28 31.9116 384.085 30.1918C385.887 28.4693 386.794 24.5405 386.794 18.4027C386.794 12.5148 385.94 8.77204 384.244 7.17447C382.543 5.57955 379.585 4.78209 375.374 4.78209H367.62ZM367.62 36.2232V69.0998H376.913V72.5528H341.224V69.0998H350.251V4.78209H341.224V1.32644H376.913C388.349 1.32644 396.156 3.08351 400.334 6.58966C404.513 10.0985 406.602 13.8545 406.602 17.8578C406.602 22.1109 404.691 25.742 400.866 28.7537C397.044 31.7654 391.307 33.7511 383.657 34.708V34.918C389.431 36.3668 393.742 38.286 396.589 40.6757C399.444 43.0601 401.228 45.705 401.956 48.6051C402.682 51.5025 403.07 54.9635 403.123 58.9827C403.176 62.9992 403.511 65.4873 404.133 66.4442C404.752 67.3985 405.898 67.8797 407.557 67.8797C409.399 67.8797 411.4 67.2949 413.559 66.1252V70.163C410.087 71.9653 406.249 72.8691 402.036 72.8691C396.512 72.8691 392.083 71.4895 388.758 68.7276C385.427 65.9658 383.649 60.9551 383.418 53.6982C383.189 46.4387 382.243 41.7124 380.579 39.5167C378.912 37.3211 375.871 36.2232 371.445 36.2232H367.62ZM417.474 1.32644H476.428L476.856 24.591H473.613C470.995 11.385 465.556 4.78209 457.31 4.78209H455.662V69.0998H466.444V72.5528H427.514V69.0998H438.243V4.78209H436.648C428.397 4.78209 422.945 11.385 420.292 24.591H417.049L417.474 1.32644Z" fill="#F3F4D7"/>
<mask id="mask0_9_22" style="mask-type:luminance" maskUnits="userSpaceOnUse" x="474" y="0" width="74" height="73">
<path d="M474.987 0H548V72.8133H474.987V0Z" fill="white"/>
</mask>
<g mask="url(#mask0_9_22)">
<path d="M495.288 48.9693H514.815L505.434 24.2746L495.288 48.9693ZM516.208 52.6349H493.783L490.78 59.9449C489.581 62.8503 488.991 64.9583 488.991 66.2741C488.991 68.1561 490.761 69.0998 494.304 69.0998H498.233V72.5528H475.293V69.0998H477.364C480.088 69.0998 481.93 68.6372 482.885 67.7148C483.844 66.7898 485.014 64.6446 486.396 61.2794L511.378 0H514.453L540.621 69.0998H548V72.5528H512.946V69.0998H522.465L516.208 52.6349Z" fill="#F3F4D7"/>
</g>
<path d="M100.408 5.29759L83.0872 92.7628C78.9378 114.039 71.8032 128.651 61.6834 136.594C51.569 144.536 40.8299 148.513 29.482 148.513C21.7626 148.513 14.9204 146.745 8.9528 143.21C2.98515 139.675 0 134.664 0 128.181C0 124.286 1.10581 121.221 3.30945 118.986C5.5131 116.745 8.14205 115.629 11.1937 115.629C14.107 115.629 16.5552 116.633 18.5383 118.643C20.5133 120.655 21.5021 123.056 21.5021 125.844C21.5021 129.475 20.3192 132.072 17.9508 133.627C15.5823 135.182 14.3994 136.448 14.3994 137.423C14.3994 138.912 15.7152 140.243 18.3389 141.41C20.9678 142.577 24.2268 143.162 28.1184 143.162C35.1227 143.162 40.6066 141.426 44.562 137.957C48.5174 134.486 51.3882 130.158 53.1719 124.97C54.9555 119.781 56.6887 112.904 58.374 104.345L77.933 5.29759H59.4479L60.4208 0.337402H119.38L118.407 5.29759H100.408ZM427.323 85.9977L431.978 100.413L436.688 85.9977H446.476V87.2045H443.283V109.703H446.476V110.91H433.918V109.703H437.188V88.5443L429.968 110.91H429.118L421.808 88.2652V107.157C421.808 108.196 421.935 108.882 422.196 109.212C422.456 109.539 423.177 109.703 424.352 109.703H425.226V110.91H416.901V109.703H418.424C419.391 109.703 419.979 109.541 420.191 109.22C420.401 108.898 420.505 108.247 420.505 107.269V87.2045H416.901V85.9977H427.323ZM464.153 98.4646C464.153 94.6501 464.081 92.1355 463.94 90.9207C463.799 89.7086 463.432 88.7277 462.845 87.9834C462.255 87.2418 461.287 86.8723 459.934 86.8723C458.796 86.8723 457.89 87.1726 457.215 87.7734C456.537 88.3741 456.117 89.3364 455.95 90.6602C455.782 91.9866 455.7 94.5757 455.7 98.4274C455.7 102.242 455.774 104.765 455.915 105.998C456.056 107.229 456.436 108.21 457.045 108.941C457.659 109.672 458.624 110.038 459.934 110.038C461.024 110.038 461.915 109.743 462.603 109.156C463.291 108.568 463.719 107.611 463.892 106.285C464.07 104.959 464.153 102.354 464.153 98.4646ZM448.772 98.3503C448.772 94.6236 449.873 91.5746 452.077 89.2008C454.28 86.8297 456.928 85.6442 460.011 85.6442C462.871 85.6442 465.434 86.758 467.691 88.9908C469.953 91.2184 471.083 94.3896 471.083 98.5019C471.083 102.354 470.014 105.44 467.88 107.763C465.742 110.086 463.132 111.245 460.048 111.245C456.715 111.245 454.004 110.012 451.909 107.548C449.814 105.084 448.772 102.019 448.772 98.3503ZM482.537 87.2045V109.703H484.507C487.516 109.703 489.334 108.821 489.961 107.056C490.583 105.288 490.897 102.269 490.897 97.9888C490.897 94.6448 490.703 92.2392 490.323 90.7745C489.94 89.3125 489.358 88.3502 488.574 87.8957C487.797 87.4358 486.803 87.2045 485.602 87.2045H482.537ZM476.444 109.703V87.2045H473.323V85.9977H485.955C489.608 85.9977 492.502 87.1567 494.632 89.472C496.763 91.7873 497.827 94.7113 497.827 98.2414C497.827 100.073 497.502 101.798 496.851 103.404C496.203 105.017 495.2 106.482 493.853 107.8C492.502 109.119 491.12 109.967 489.701 110.344C488.284 110.724 486.537 110.91 484.472 110.91H473.323V109.703H476.444ZM509.821 87.2045V97.739H510.621C513.21 97.739 514.706 96.2716 515.116 93.337H516.322V103.518H515.116C514.906 100.469 513.406 98.9484 510.621 98.9484H509.821V109.703H514.074C517.83 109.703 520.281 107.383 521.432 102.736H522.713L522.192 110.91H500.567V109.703H503.725V87.2045H500.567V85.9977H521.432L521.764 92.9462H520.557C519.775 90.5937 518.805 89.0467 517.646 88.3103C516.485 87.574 514.959 87.2045 513.058 87.2045H509.821ZM545.929 110.91H525.009V109.703H528.391V87.2045H525.009V85.9977H538.199V87.2045H534.486V109.703H536.844C538.154 109.703 539.124 109.634 539.749 109.499C540.376 109.363 541.07 108.962 541.83 108.3C542.593 107.633 543.237 106.798 543.766 105.791C544.292 104.786 544.76 103.675 545.167 102.457H546.318L545.929 110.91Z" fill="#F3F4D7"/>
<mask id="mask1_9_22" style="mask-type:luminance" maskUnits="userSpaceOnUse" x="103" y="124" width="27" height="27">
<path d="M103.435 124.531H129.294V150.023H103.435V124.531Z" fill="white"/>
</mask>
<g mask="url(#mask1_9_22)">
<path d="M112.877 125.853V141.943C112.877 144.518 113.35 146.241 114.289 147.115C115.23 147.987 116.506 148.426 118.119 148.426C119.329 148.426 120.429 148.195 121.405 147.737C122.386 147.28 123.151 146.586 123.712 145.667C124.268 144.744 124.547 143.173 124.547 140.956V127.804C124.547 126.948 124.488 126.408 124.379 126.185C124.268 125.964 123.741 125.853 122.8 125.853H121.091V124.643H129.042V125.853H127.872C126.944 125.853 126.376 125.962 126.163 126.177C125.95 126.392 125.844 126.985 125.844 127.953V140.845C125.844 142.48 125.69 143.912 125.373 145.146C125.06 146.379 124.22 147.477 122.864 148.442C121.508 149.409 119.419 149.891 116.596 149.891C115.108 149.891 113.661 149.723 112.258 149.383C110.849 149.043 109.701 148.439 108.808 147.57C107.917 146.703 107.359 145.816 107.13 144.904C106.902 143.995 106.785 142.931 106.785 141.719V125.853H103.518V124.643H116.296V125.853H112.877Z" fill="#F3F4D7"/>
</g>
<mask id="mask2_9_22" style="mask-type:luminance" maskUnits="userSpaceOnUse" x="133" y="124" width="25" height="27">
<path d="M133.378 124.531H157.876V150.023H133.378V124.531Z" fill="white"/>
</mask>
<g mask="url(#mask2_9_22)">
<path d="M143.285 124.643L153.155 139.284V128.564C153.155 127.437 153.046 126.706 152.82 126.363C152.6 126.023 152.012 125.853 151.058 125.853H149.888V124.643H157.448V125.853H156.574C155.633 125.853 155.048 125.996 154.808 126.281C154.575 126.565 154.46 127.134 154.46 127.987V149.893H153.115L138.368 127.987V145.988C138.368 146.996 138.474 147.639 138.687 147.924C138.894 148.208 139.476 148.349 140.43 148.349H141.879V149.558H133.982V148.349H134.968C135.97 148.349 136.571 148.181 136.77 147.849C136.967 147.514 137.068 146.629 137.068 145.191V127.99C137.068 127.049 136.977 126.459 136.799 126.214C136.618 125.975 136.092 125.853 135.228 125.853H133.873V124.643H143.285Z" fill="#F3F4D7"/>
</g>
<path d="M171.898 125.852V148.351H175.282V149.558H162.533V148.351H165.805V125.852H162.533V124.643H175.282V125.852H171.898ZM180.617 124.643H201.239L201.385 132.782H200.255C199.336 128.162 197.435 125.852 194.548 125.852H193.974V148.349H197.746V149.558H184.128V148.349H187.882V125.852H187.321C184.436 125.852 182.528 128.162 181.6 132.782H180.465L180.617 124.643ZM215.992 125.852V136.387H216.792C219.378 136.387 220.878 134.917 221.29 131.982H222.494V142.163H221.29C221.077 139.117 219.578 137.594 216.792 137.594H215.992V148.351H220.245C224.001 148.351 226.452 146.028 227.606 141.384H228.887L228.363 149.558H206.739V148.351H209.897V125.852H206.739V124.643H227.606L227.935 131.591H226.731C225.947 129.239 224.977 127.694 223.82 126.958C222.659 126.222 221.13 125.852 219.23 125.852H215.992ZM243.454 125.852V148.351H245.423C248.43 148.351 250.251 147.466 250.878 145.701C251.5 143.936 251.814 140.914 251.814 136.637C251.814 133.29 251.62 130.884 251.24 129.422C250.857 127.958 250.272 126.998 249.49 126.541C248.714 126.081 247.72 125.852 246.519 125.852H243.454ZM237.361 148.351V125.852H234.238V124.643H246.872C250.525 124.643 253.417 125.804 255.546 128.117C257.68 130.435 258.744 133.359 258.744 136.886C258.744 138.721 258.417 140.443 257.768 142.051C257.119 143.662 256.117 145.127 254.77 146.445C253.417 147.764 252.034 148.612 250.618 148.989C249.201 149.372 247.454 149.558 245.386 149.558H234.238V148.351H237.361Z" fill="#F3F4D7"/>
<mask id="mask3_9_22" style="mask-type:luminance" maskUnits="userSpaceOnUse" x="274" y="124" width="26" height="27">
<path d="M274.921 124.531H299.419V150.023H274.921V124.531Z" fill="white"/>
</mask>
<g mask="url(#mask3_9_22)">
<path d="M284.99 124.643L294.863 139.284V128.564C294.863 127.437 294.751 126.706 294.525 126.363C294.304 126.023 293.717 125.853 292.763 125.853H291.593V124.643H299.156V125.853H298.281C297.34 125.853 296.753 125.996 296.513 126.281C296.279 126.565 296.165 127.134 296.165 127.987V149.893H294.823L280.075 127.987V145.988C280.075 146.996 280.179 147.639 280.391 147.924C280.599 148.208 281.184 148.349 282.135 148.349H283.584V149.558H275.686V148.349H276.673C277.675 148.349 278.275 148.181 278.475 147.849C278.674 147.514 278.775 146.629 278.775 145.191V127.99C278.775 127.049 278.682 126.459 278.504 126.214C278.323 125.975 277.8 125.853 276.933 125.853H275.577V124.643H284.99Z" fill="#F3F4D7"/>
</g>
<path d="M309.743 141.31H316.572L313.289 132.67L309.743 141.31ZM317.061 142.591H309.217L308.167 145.148C307.747 146.163 307.54 146.9 307.54 147.362C307.54 148.022 308.156 148.348 309.398 148.348H310.772V149.558H302.747V148.348H303.47C304.424 148.348 305.07 148.189 305.405 147.867C305.74 147.543 306.147 146.793 306.633 145.616L315.371 124.18H316.447L325.6 148.348H328.183V149.558H315.924V148.348H319.249L317.061 142.591ZM331.753 124.643H352.376L352.522 132.782H351.392C350.472 128.162 348.572 125.852 345.685 125.852H345.111V148.348H348.883V149.558H335.265V148.348H339.018V125.852H338.457C335.573 125.852 333.665 128.162 332.737 132.782H331.602L331.753 124.643ZM367.083 125.852V148.351H370.467V149.558H357.721V148.351H360.993V125.852H357.721V124.643H370.467V125.852H367.083Z" fill="#F3F4D7"/>
<mask id="mask4_9_22" style="mask-type:luminance" maskUnits="userSpaceOnUse" x="374" y="123" width="24" height="28">
<path d="M374.274 123.851H397.411V150.023H374.274V123.851Z" fill="white"/>
</mask>
<g mask="url(#mask4_9_22)">
<path d="M390.274 137.11C390.274 133.298 390.205 130.781 390.061 129.566C389.92 128.354 389.553 127.376 388.966 126.631C388.376 125.89 387.408 125.52 386.055 125.52C384.918 125.52 384.011 125.818 383.336 126.419C382.661 127.02 382.241 127.984 382.073 129.308C381.903 130.635 381.821 133.221 381.821 137.073C381.821 140.887 381.895 143.413 382.036 144.643C382.177 145.877 382.557 146.858 383.169 147.589C383.78 148.32 384.745 148.686 386.055 148.686C387.148 148.686 388.036 148.389 388.724 147.801C389.413 147.216 389.841 146.26 390.013 144.93C390.191 143.607 390.274 141.002 390.274 137.11ZM374.894 136.998C374.894 133.272 375.994 130.22 378.198 127.849C380.401 125.478 383.049 124.29 386.132 124.29C388.993 124.29 391.555 125.406 393.812 127.636C396.074 129.866 397.204 133.038 397.204 137.15C397.204 141.002 396.135 144.088 394.003 146.408C391.863 148.732 389.253 149.891 386.17 149.891C382.836 149.891 380.125 148.66 378.03 146.196C375.938 143.732 374.894 140.664 374.894 136.998Z" fill="#F3F4D7"/>
</g>
<mask id="mask5_9_22" style="mask-type:luminance" maskUnits="userSpaceOnUse" x="401" y="124" width="25" height="27">
<path d="M401.494 124.531H425.311V150.023H401.494V124.531Z" fill="white"/>
</mask>
<g mask="url(#mask5_9_22)">
<path d="M411.015 124.643L420.887 139.284V128.564C420.887 127.437 420.778 126.706 420.552 126.363C420.332 126.023 419.744 125.853 418.79 125.853H417.62V124.643H425.18V125.853H424.306C423.365 125.853 422.777 125.996 422.541 126.281C422.307 126.565 422.19 127.134 422.19 127.987V149.893H420.847L406.1 127.987V145.988C406.1 146.996 406.206 147.639 406.419 147.924C406.626 148.208 407.208 148.349 408.162 148.349H409.611V149.558H401.714V148.349H402.7C403.702 148.349 404.303 148.181 404.499 147.849C404.699 147.514 404.8 146.629 404.8 145.191V127.99C404.8 127.049 404.707 126.459 404.531 126.214C404.351 125.975 403.824 125.853 402.96 125.853H401.602V124.643H411.015Z" fill="#F3F4D7"/>
</g>
<mask id="mask6_9_22" style="mask-type:luminance" maskUnits="userSpaceOnUse" x="430" y="123" width="17" height="28">
<path d="M430.074 123.851H446.406V150.023H430.074V123.851Z" fill="white"/>
</mask>
<g mask="url(#mask6_9_22)">
<path d="M444.532 124.757L444.832 131.445H443.344C442.568 129.239 441.675 127.7 440.68 126.828C439.681 125.954 438.477 125.52 437.068 125.52C435.861 125.52 434.872 125.898 434.093 126.653C433.312 127.408 432.924 128.279 432.924 129.271C432.924 130.496 433.33 131.342 434.147 131.796C434.965 132.254 436.369 132.697 438.365 133.12C441.422 133.782 443.477 134.773 444.524 136.089C445.569 137.408 446.095 139.082 446.095 141.111C446.095 143.5 445.401 145.56 444.024 147.296C442.642 149.027 440.707 149.891 438.216 149.891C436.443 149.891 434.851 149.335 433.424 148.219C432.73 148.766 432.102 149.298 431.547 149.819H430.3V142.554H431.754C432.841 146.642 434.96 148.686 438.105 148.686C439.766 148.686 441.042 148.195 441.935 147.216C442.823 146.238 443.269 145.143 443.269 143.928C443.269 143.248 443.075 142.634 442.685 142.089C442.297 141.547 441.837 141.111 441.321 140.789C440.8 140.467 439.365 140.063 437.009 139.577C434.66 139.088 432.932 138.181 431.837 136.857C430.739 135.534 430.191 133.883 430.191 131.903C430.191 129.776 430.861 127.971 432.203 126.501C433.546 125.029 435.218 124.29 437.222 124.29C438.745 124.29 440.26 124.827 441.768 125.89C442.249 125.605 442.77 125.228 443.325 124.757H444.532Z" fill="#F3F4D7"/>
</g>
<path d="M479.554 141.496L478.98 149.558H463.562V146.251C464.291 145.56 465.001 144.919 465.694 144.337C469.113 141.488 471.316 139.396 472.311 138.059C473.299 136.719 473.794 134.784 473.794 132.243C473.794 128.316 472.582 126.352 470.155 126.352C469.187 126.352 468.326 126.591 467.563 127.059C466.803 127.53 466.417 128.082 466.417 128.715C466.417 129.132 466.742 129.356 467.377 129.372C468.012 129.393 468.637 129.606 469.246 130.012C469.852 130.422 470.155 131.129 470.155 132.131C470.155 132.96 469.865 133.633 469.28 134.146C468.698 134.662 468.076 134.917 467.404 134.917C466.614 134.917 465.883 134.592 465.213 133.944C464.546 133.293 464.211 132.373 464.211 131.185C464.211 129.412 464.9 127.899 466.274 126.642C467.648 125.384 469.419 124.757 471.588 124.757C473.914 124.757 475.883 125.422 477.502 126.753C479.118 128.085 479.926 129.685 479.926 131.557C479.926 134.356 478.09 137.019 474.408 139.545L466.957 144.691V144.765H476.282C477.05 144.765 477.582 144.595 477.864 144.252C478.151 143.912 478.31 142.995 478.35 141.496H479.554Z" fill="#F3F4D7"/>
<mask id="mask7_9_22" style="mask-type:luminance" maskUnits="userSpaceOnUse" x="485" y="124" width="18" height="27">
<path d="M485.195 124.531H502.888V150.023H485.195V124.531Z" fill="white"/>
</mask>
<g mask="url(#mask7_9_22)">
<path d="M493.919 148.795C494.66 148.795 495.232 148.373 495.62 147.525C496.008 146.677 496.242 143.942 496.316 139.322L496.428 134.194C496.428 131.405 496.237 129.34 495.854 127.987C495.468 126.639 494.86 125.964 494.028 125.964C493.039 125.964 492.396 126.849 492.09 128.62C491.784 130.393 491.635 133.593 491.635 138.226C491.635 141.78 491.742 144.268 491.957 145.693C492.178 147.118 492.43 147.993 492.722 148.312C493.012 148.636 493.411 148.795 493.919 148.795ZM494.07 124.757C496.396 124.757 498.384 125.954 500.033 128.351C501.678 130.749 502.502 133.798 502.502 137.501C502.502 139.322 502.111 141.313 501.33 143.474C500.554 145.637 499.48 147.267 498.111 148.37C496.742 149.473 495.367 150.021 493.993 150.021C491.728 150.021 489.753 148.782 488.065 146.299C486.383 143.814 485.54 140.831 485.54 137.352C485.54 133.909 486.367 130.951 488.023 128.471C489.674 125.996 491.688 124.757 494.07 124.757Z" fill="#F3F4D7"/>
</g>
<path d="M523.412 141.496L522.838 149.558H507.418V146.251C508.146 145.56 508.858 144.919 509.552 144.337C512.971 141.488 515.174 139.396 516.168 138.059C517.157 136.719 517.652 134.784 517.652 132.242C517.652 128.316 516.437 126.352 514.013 126.352C513.045 126.352 512.184 126.591 511.418 127.059C510.661 127.529 510.275 128.082 510.275 128.715C510.275 129.132 510.597 129.356 511.235 129.372C511.87 129.393 512.492 129.605 513.101 130.012C513.707 130.422 514.013 131.129 514.013 132.131C514.013 132.96 513.72 133.633 513.138 134.146C512.553 134.661 511.931 134.917 511.261 134.917C510.469 134.917 509.741 134.592 509.068 133.944C508.404 133.292 508.066 132.373 508.066 131.184C508.066 129.411 508.755 127.899 510.129 126.642C511.503 125.384 513.276 124.757 515.443 124.757C517.771 124.757 519.741 125.421 521.357 126.753C522.973 128.085 523.781 129.685 523.781 131.557C523.781 134.356 521.945 137.019 518.266 139.544L510.815 144.691V144.765H520.14C520.908 144.765 521.437 144.595 521.719 144.252C522.006 143.912 522.165 142.995 522.205 141.496H523.412ZM536.905 131.227L530.315 141.772H536.979V131.227H536.905ZM542.352 124.757V141.772H545.042V139.34H546.211V145.454H545.042V142.982H542.352V148.351H545.042V149.558H533.933V148.351H536.979V142.982H528.954V141.735L539.688 124.757H542.352ZM113.194 87.2179V109.717H116.578V110.924H103.832V109.717H107.104V87.2179H103.832V86.0111H116.578V87.2179H113.194ZM127.559 86.0111L137.431 100.65V89.9319C137.431 88.8048 137.32 88.0712 137.097 87.7283C136.873 87.388 136.288 87.2179 135.334 87.2179H134.162V86.0111H141.724V87.2179H140.85C139.909 87.2179 139.321 87.3614 139.082 87.6459C138.848 87.933 138.734 88.4992 138.734 89.3551V111.259H137.392L122.644 89.3551V107.356C122.644 108.361 122.748 109.004 122.96 109.289C123.168 109.576 123.752 109.717 124.707 109.717H126.155V110.924H118.258V109.717H119.241C120.244 109.717 120.844 109.549 121.044 109.214C121.243 108.88 121.344 107.994 121.344 106.556V89.3551C121.344 88.4141 121.251 87.824 121.076 87.5794C120.895 87.3402 120.369 87.2179 119.502 87.2179H118.146V86.0111H127.559ZM143.588 86.0111H164.213L164.356 94.1478H163.227C162.307 89.5279 160.409 87.2179 157.519 87.2179H156.945V109.717H160.717V110.924H147.099V109.717H150.855V87.2179H150.294C147.41 87.2179 145.502 89.5279 144.574 94.1478H143.439L143.588 86.0111ZM175.829 87.2179V97.7523H176.627C179.216 97.7523 180.712 96.285 181.124 93.3504H182.331V103.531H181.124C180.912 100.482 179.415 98.9618 176.627 98.9618H175.829V109.717H180.082C183.836 109.717 186.286 107.396 187.44 102.75H188.721L188.2 110.924H166.576V109.717H169.734V87.2179H166.576V86.0111H187.44L187.772 92.9596H186.566C185.784 90.6071 184.811 89.06 183.655 88.3237C182.493 87.5874 180.965 87.2179 179.067 87.2179H175.829ZM200.359 87.2179V97.008H202.719C204.354 97.008 205.489 96.7077 206.119 96.1069C206.752 95.5062 207.066 94.1319 207.066 91.984C207.066 89.9239 206.768 88.6135 206.172 88.0552C205.582 87.497 204.543 87.2179 203.073 87.2179H200.359ZM200.359 98.2175V109.717H203.61V110.924H191.124V109.717H194.282V87.2179H191.124V86.0111H203.61C207.608 86.0111 210.343 86.6251 211.805 87.8532C213.262 89.0786 213.995 90.3918 213.995 91.7927C213.995 93.2812 213.326 94.5519 211.991 95.6045C210.651 96.6572 208.647 97.3509 205.97 97.6859V97.7603C207.988 98.268 209.495 98.9379 210.492 99.7726C211.491 100.61 212.113 101.535 212.371 102.548C212.621 103.56 212.759 104.773 212.775 106.179C212.799 107.582 212.914 108.454 213.129 108.789C213.347 109.121 213.748 109.292 214.33 109.292C214.971 109.292 215.675 109.084 216.43 108.678V110.086C215.216 110.719 213.873 111.035 212.398 111.035C210.465 111.035 208.916 110.554 207.754 109.587C206.587 108.622 205.965 106.867 205.885 104.331C205.806 101.79 205.476 100.137 204.891 99.3685C204.309 98.6003 203.246 98.2175 201.693 98.2175H200.359ZM227.265 86.0111L237.135 100.65V89.9319C237.135 88.8048 237.026 88.0712 236.8 87.7283C236.579 87.388 235.992 87.2179 235.038 87.2179H233.868V86.0111H241.431V87.2179H240.556C239.615 87.2179 239.028 87.3614 238.788 87.6459C238.555 87.933 238.44 88.4992 238.44 89.3551V111.259H237.098L222.348 89.3551V107.356C222.348 108.361 222.454 109.004 222.667 109.289C222.874 109.576 223.456 109.717 224.41 109.717H225.859V110.924H217.961V109.717H218.948C219.95 109.717 220.551 109.549 220.75 109.214C220.947 108.88 221.05 107.994 221.05 106.556V89.3551C221.05 88.4141 220.957 87.824 220.779 87.5794C220.598 87.3402 220.075 87.2179 219.208 87.2179H217.853V86.0111H227.265ZM248.467 102.675H255.296L252.013 94.0362L248.467 102.675ZM255.785 103.957H247.941L246.888 106.514C246.471 107.529 246.261 108.268 246.261 108.731C246.261 109.387 246.88 109.717 248.121 109.717H249.496V110.924H241.471V109.717H242.194C243.148 109.717 243.794 109.555 244.129 109.233C244.464 108.911 244.87 108.159 245.357 106.982L254.092 85.5459H255.171L264.323 109.717H266.907V110.924H254.645V109.717H257.97L255.785 103.957ZM267.008 86.0111H287.633L287.776 94.1478H286.647C285.727 89.5279 283.829 87.2179 280.939 87.2179H280.365V109.717H284.137V110.924H270.519V109.717H274.275V87.2179H273.714C270.83 87.2179 268.922 89.5279 267.994 94.1478H266.859L267.008 86.0111ZM299.098 87.2179V109.717H302.481V110.924H289.733V109.717H293.008V87.2179H289.733V86.0111H302.481V87.2179H299.098ZM320.1 98.478C320.1 94.6635 320.031 92.1489 319.89 90.9341C319.749 89.7219 319.382 88.741 318.795 87.9968C318.202 87.2551 317.234 86.8856 315.881 86.8856C314.744 86.8856 313.837 87.186 313.162 87.7868C312.487 88.3875 312.067 89.3498 311.899 90.6736C311.732 92 311.647 94.5891 311.647 98.4408C311.647 102.255 311.721 104.778 311.865 106.011C312.006 107.242 312.383 108.223 312.995 108.954C313.609 109.685 314.571 110.052 315.881 110.052C316.974 110.052 317.862 109.757 318.55 109.169C319.239 108.582 319.669 107.625 319.839 106.298C320.018 104.972 320.1 102.367 320.1 98.478ZM304.722 98.3637C304.722 94.6369 305.82 91.588 308.024 89.2142C310.23 86.8431 312.875 85.6575 315.958 85.6575C318.821 85.6575 321.381 86.7713 323.638 89.0016C325.9 91.2318 327.033 94.403 327.033 98.5152C327.033 102.367 325.961 105.453 323.829 107.776C321.692 110.097 319.082 111.259 315.998 111.259C312.662 111.259 309.951 110.025 307.856 107.561C305.764 105.097 304.722 102.032 304.722 98.3637ZM338.383 86.0111L348.256 100.65V89.9319C348.256 88.8048 348.144 88.0712 347.921 87.7283C347.697 87.388 347.11 87.2179 346.158 87.2179H344.986V86.0111H352.549V87.2179H351.674C350.733 87.2179 350.146 87.3614 349.906 87.6459C349.672 87.933 349.558 88.4992 349.558 89.3551V111.259H348.216L333.468 89.3551V107.356C333.468 108.361 333.572 109.004 333.784 109.289C333.992 109.576 334.576 109.717 335.531 109.717H336.98V110.924H329.082V109.717H330.066C331.068 109.717 331.668 109.549 331.868 109.214C332.067 108.88 332.168 107.994 332.168 106.556V89.3551C332.168 88.4141 332.075 87.824 331.9 87.5794C331.719 87.3402 331.193 87.2179 330.326 87.2179H328.97V86.0111H338.383ZM359.59 102.675H366.419L363.136 94.0362L359.59 102.675ZM366.908 103.957H359.064L358.011 106.514C357.594 107.529 357.384 108.268 357.384 108.731C357.384 109.387 358.003 109.717 359.245 109.717H360.619V110.924H352.591V109.717H353.317C354.271 109.717 354.917 109.555 355.252 109.233C355.587 108.911 355.994 108.159 356.48 106.982L365.218 85.5459H366.294L375.446 109.717H378.03V110.924H365.768V109.717H369.093L366.908 103.957ZM400.348 110.924H379.431V109.717H382.809V87.2179H379.431V86.0111H392.621V87.2179H388.905V109.717H391.262C392.576 109.717 393.543 109.648 394.171 109.512C394.798 109.377 395.492 108.975 396.252 108.313C397.015 107.646 397.655 106.811 398.184 105.804C398.711 104.799 399.179 103.688 399.585 102.471H400.739L400.348 110.924Z" fill="#F3F4D7"/>
</svg>
