<?xml version="1.0" encoding="utf-8"?>
<!-- Generator: Adobe Illustrator 25.0.1, SVG Export Plug-In . SVG Version: 6.00 Build 0)  -->
<svg version="1.1" id="Layer_1" xmlns="http://www.w3.org/2000/svg" xmlns:xlink="http://www.w3.org/1999/xlink" x="0px" y="0px"
	 viewBox="0 0 841.89 595.28" style="enable-background:new 0 0 841.89 595.28;" xml:space="preserve">
<style type="text/css">
	.st0{fill:#0B56A5;}
</style>
<g>
	<path class="st0" d="M294.65,203.78c-1.97,3.4-2.72,4.9-2.72,4.9c-1.49,2.99-5.28,4.46-8.4,3.27l-5.7-2.16
		c-3.11-1.19-6.65,0.39-7.83,3.52l-4.33,11.35c-1.18,3.12,0.4,6.65,3.53,7.84l5.68,2.17c3.13,1.19,5.03,4.81,4.24,8.06l-2.5,12.4
		c-0.51,3.3-3.67,5.91-7.01,5.81l-6.1-0.2c-3.33-0.11-6.16,2.53-6.27,5.87l-0.41,12.14c-0.11,3.33,2.53,6.16,5.87,6.27l6.14,0.21
		c3.33,0.11,6.32,2.92,6.63,6.24l1.67,12.53c0.58,3.28-1.55,6.78-4.74,7.76l-5.91,1.8c-3.19,0.97-5.01,4.4-4.03,7.59l5.32,17.45
		l32.78-10.13c-15.04-36.69-13.51-79.68,7.85-116.67c21.35-36.99,57.84-59.8,97.12-65.12l-7.6-33.45l-17.77,4.1
		c-3.25,0.76-5.31,4.03-4.56,7.28l1.39,6.02c0.75,3.26-1.2,6.86-4.35,8l-11.68,4.81c-3.04,1.4-6.97,0.22-8.73-2.63l-3.23-5.21
		c-1.77-2.83-5.54-3.71-8.37-1.94l-10.31,6.41c-2.83,1.76-3.72,5.53-1.95,8.36l3.23,5.19c1.76,2.83,1.08,6.87-1.53,8.97l-9.5,8.35
		c-2.41,2.32-6.51,2.47-9.1,0.37l-4.72-3.85c-2.59-2.12-6.43-1.72-8.54,0.87l-7.67,9.42c-2.11,2.58-1.72,6.44,0.87,8.55l4.73,3.85
		c2.59,2.11,3.2,6.12,1.36,8.91C297.49,199.05,296.61,200.38,294.65,203.78"/>
	<path class="st0" d="M421.14,423.05c3.93,0,5.6-0.1,5.6-0.1c3.33-0.2,6.5,2.34,7.03,5.64l0.97,6.01c0.53,3.31,3.67,5.57,6.98,5.04
		l11.98-1.93c3.3-0.53,5.56-3.67,5.03-6.98l-0.97-6c-0.53-3.3,1.65-6.76,4.87-7.71l11.99-4.03c3.11-1.21,6.96,0.22,8.53,3.17
		l2.87,5.37c1.57,2.96,5.28,4.08,8.22,2.51l10.71-5.71c2.96-1.58,4.08-5.28,2.5-8.22l-2.89-5.42c-1.57-2.94-0.63-6.93,2.1-8.86
		l10-7.73c2.56-2.14,6.66-2.03,9.1,0.25l4.52,4.21c2.45,2.27,6.31,2.14,8.58-0.31l12.45-13.33l-25.16-23.33
		c-24.26,31.36-62.26,51.55-104.97,51.55c-42.71-0.02-80.7-20.21-104.96-51.55l-25.17,23.3l12.45,13.34
		c2.29,2.45,6.15,2.58,8.59,0.31l4.52-4.21c2.45-2.28,6.53-2.39,9.1-0.23l10,7.71c2.73,1.93,3.68,5.92,2.11,8.87l-2.9,5.42
		c-1.57,2.95-0.45,6.65,2.5,8.22l10.71,5.72c2.95,1.57,6.65,0.45,8.22-2.5l2.87-5.38c1.58-2.94,5.41-4.37,8.53-3.17l11.99,4.04
		c3.2,0.93,5.39,4.41,4.86,7.71l-0.97,6c-0.52,3.31,1.73,6.43,5.03,6.97l11.99,1.93c3.3,0.54,6.43-1.72,6.97-5.02l0.97-6.01
		c0.53-3.31,3.7-5.85,7.04-5.64C415.62,422.96,417.21,423.05,421.14,423.05"/>
	<path class="st0" d="M547.79,203.87c-1.96-3.4-2.88-4.8-2.88-4.8c-1.84-2.79-1.23-6.81,1.36-8.92l4.73-3.85
		c2.59-2.11,2.98-5.96,0.87-8.55l-7.67-9.41c-2.11-2.59-5.95-2.99-8.54-0.88l-4.72,3.85c-2.6,2.11-6.69,1.95-9.11-0.37l-9.49-8.35
		c-2.61-2.1-3.29-6.14-1.53-8.97l3.23-5.19c1.76-2.83,0.89-6.6-1.95-8.36l-10.31-6.42c-2.84-1.76-6.61-0.89-8.37,1.95l-3.24,5.21
		c-1.76,2.83-5.69,4.01-8.73,2.62l-11.69-4.81c-3.14-1.14-5.09-4.73-4.34-7.99l1.39-6.01c0.74-3.26-1.31-6.54-4.56-7.28l-17.77-4.11
		l-7.61,33.45c39.28,5.32,75.75,28.14,97.11,65.13c21.36,36.99,22.86,79.99,7.84,116.67l32.76,10.14l5.33-17.44
		c0.97-3.19-0.84-6.62-4.03-7.59l-5.9-1.81c-3.19-0.98-5.33-4.48-4.75-7.76l1.68-12.52c0.31-3.32,3.3-6.13,6.63-6.25l6.14-0.21
		c3.33-0.11,5.98-2.93,5.86-6.27l-0.4-12.13c-0.12-3.34-2.94-5.98-6.27-5.87l-6.1,0.2c-3.34,0.11-6.49-2.5-7.01-5.81l-2.49-12.4
		c-0.8-3.24,1.11-6.87,4.24-8.06l5.68-2.16c3.12-1.19,4.71-4.72,3.51-7.84l-4.31-11.35c-1.18-3.13-4.71-4.71-7.83-3.52l-5.7,2.17
		c-3.12,1.18-6.91-0.28-8.41-3.27C550.46,208.7,549.76,207.28,547.79,203.87"/>
	<path class="st0" d="M231.3,201c-0.08,0.18-0.13,0.27-0.13,0.27S231.22,201.17,231.3,201"/>
	<path class="st0" d="M283.54,132.18l0.47,0.56c1.44-0.99,6.33-4.52,12.34-6.21c33.05-9.29,31.39-20.72,45.37-27.51l-0.42-0.69
		c-1.4,0.88-5.68,3.37-11.65,3.45C290.87,102.27,293.82,124.89,283.54,132.18"/>
	<path class="st0" d="M245,175.21l0.71,0.46c7.86-8.73,15.43-10.36,16.71-10.74c30.76-9.1,41.5-29.45,49.82-35.25l-0.31-0.46
		c-11.35,8.07-24.88-0.11-47.91,24.5c-0.15,0.15-0.79-0.73-0.79-0.73c18.69-22.56,19.15-37.89,27.8-46.26l-0.45-0.42
		C236.09,138.79,260,156.59,245,175.21"/>
	<path class="st0" d="M247.27,137.52c-51.36,50.9-19.4,63.91-27.44,89.23l0.51,0.23c4.62-10.74,16.54-15.44,16.84-15.58
		c21.76-10.04,28.59-35.37,37.3-43.08l-0.44-0.41c-10.62,11.54-28.17,5.06-42.4,33.62c-0.04,0.09-0.96-0.46-0.96-0.48
		c11.54-24.88,6.14-47.38,17.1-62.87C247.6,137.89,247.41,137.65,247.27,137.52"/>
	<path class="st0" d="M209.95,294.32l0.76,0.04c-0.19-2.9-0.97-15.04,11.14-26.25c24.4-22.57,20.25-42.67,30.25-58.17l-0.75-0.42
		c-7.77,13.25-36.18,27.71-37.36,48.07c-0.02,0.02-1.09-0.09-1.09-0.16c4.15-29.18-11.26-48.6-2.86-67.08
		c-0.28-0.19-0.55-0.34-0.74-0.43C176.71,256.93,203.78,256,209.95,294.32"/>
	<path class="st0" d="M222.51,358l0.8-0.28c-6.74-15.15,4.52-35.82,5.04-36.81c14.82-28.73,9.87-54.73,13.25-63.8l-0.7-0.2
		c-7.91,19.71-29.88,30.43-26.46,63.59c0.01,0.06-1.06,0.06-1.07,0c-3.46-20.57-26.78-40.3-26.03-62.75
		c-0.13-0.02-0.27-0.02-0.39-0.02C172.43,337.45,213.83,336.91,222.51,358"/>
	<path class="st0" d="M255.69,417.03l0.55-0.44c-13.83-16.79-9.63-35.09-9.39-36.42c6.88-39.76-5.99-46.92-6.28-64.93h-0.67
		c-0.59,20.12-21.2,42.78-2.48,70.94l-0.91,0.57c-20.62-30.09-36.98-22.73-46.62-52.66h-0.01c-0.3,0-0.68,0.13-0.87,0.25
		C203.52,421.98,242.51,395.46,255.69,417.03"/>
	<path class="st0" d="M336.15,455.26l-0.18-0.82c-27.16,5.45-41.02,0.24-45.95-24.75c-6.92-35.05-30.77-48.58-33.56-62.59h-0.05
		c-0.4,0-0.6,0.06-0.68,0.1c0,0.01,0.01,0.01,0.01,0.01c5.11,24.75-6.94,39.48,22.92,69.12l-0.82,0.7
		c-28.74-22.8-48.48-14.4-59.9-30.23c-0.23,0.19-0.43,0.38-0.49,0.5C253.09,466.47,291.27,469.68,336.15,455.26"/>
	<path class="st0" d="M269.04,465.44l0.23-0.31c36.54,21.31,74.73-8.4,120.99-9.46c11.61-0.27,46.32,1.83,78.17,38.86l-8.45,2.42
		c-10.53-18.28-26.76-31.5-41.5-35.18c-42.09-10.52-42.91,28.73-89.65,29.33C294.13,491.56,270.4,466.82,269.04,465.44"/>
	<path class="st0" d="M610.59,201c0.08,0.18,0.14,0.27,0.14,0.27S610.67,201.17,610.59,201"/>
	<path class="st0" d="M610.59,201c0.08,0.18,0.14,0.27,0.14,0.27S610.67,201.17,610.59,201"/>
	<path class="st0" d="M231.3,201c-0.08,0.18-0.13,0.27-0.13,0.27S231.22,201.17,231.3,201"/>
	<path class="st0" d="M610.59,201c0.08,0.18,0.14,0.27,0.14,0.27S610.67,201.17,610.59,201"/>
	<path class="st0" d="M558.35,132.18l-0.46,0.56c-1.44-0.99-6.35-4.52-12.35-6.21c-33.05-9.29-31.4-20.72-45.37-27.51l0.42-0.69
		c1.4,0.88,5.68,3.37,11.65,3.45C551.02,102.27,548.07,124.89,558.35,132.18"/>
	<path class="st0" d="M596.88,175.21l-0.71,0.46c-7.86-8.73-15.44-10.36-16.71-10.74c-30.77-9.1-41.5-29.45-49.82-35.25l0.31-0.46
		c11.35,8.07,24.88-0.11,47.92,24.5c0.14,0.15,0.78-0.73,0.78-0.73c-18.68-22.56-19.15-37.89-27.79-46.26l0.46-0.42
		C605.8,138.79,581.89,156.59,596.88,175.21"/>
	<path class="st0" d="M594.62,137.52c51.36,50.9,19.4,63.91,27.44,89.23l-0.51,0.23c-4.62-10.74-16.54-15.44-16.84-15.58
		c-21.76-10.04-28.59-35.37-37.3-43.08l0.43-0.41c10.63,11.54,28.18,5.06,42.4,33.62c0.05,0.09,0.97-0.46,0.95-0.48
		c-11.53-24.88-6.13-47.38-17.1-62.87C594.28,137.89,594.48,137.65,594.62,137.52"/>
	<path class="st0" d="M631.94,294.32l-0.76,0.04c0.18-2.9,0.96-15.04-11.14-26.25c-24.4-22.57-20.25-42.67-30.25-58.17l0.75-0.42
		c7.77,13.25,36.18,27.71,37.36,48.07c0,0.02,1.09-0.09,1.09-0.16c-4.15-29.18,11.26-48.6,2.85-67.08c0.29-0.19,0.56-0.34,0.75-0.43
		C665.17,256.93,638.11,256,631.94,294.32"/>
	<path class="st0" d="M619.38,358l-0.81-0.28c6.75-15.15-4.52-35.82-5.03-36.81c-14.82-28.73-9.86-54.73-13.25-63.8l0.7-0.2
		c7.91,19.71,29.88,30.43,26.46,63.59c-0.01,0.06,1.06,0.06,1.07,0c3.46-20.57,26.78-40.3,26.03-62.75
		c0.13-0.02,0.26-0.02,0.39-0.02C669.45,337.45,628.06,336.91,619.38,358"/>
	<path class="st0" d="M586.21,417.03l-0.56-0.44c13.82-16.79,9.62-35.09,9.39-36.42c-6.89-39.76,5.99-46.92,6.28-64.93H602
		c0.58,20.12,21.2,42.78,2.48,70.94l0.91,0.57c20.62-30.09,36.98-22.73,46.62-52.66h0.01c0.3,0,0.67,0.13,0.87,0.25
		C638.37,421.98,599.38,395.46,586.21,417.03"/>
	<path class="st0" d="M505.74,455.26l0.18-0.82c27.15,5.45,41.02,0.24,45.96-24.75c6.91-35.05,30.76-48.58,33.55-62.59h0.05
		c0.4,0,0.61,0.06,0.68,0.1c0,0.01-0.01,0.01-0.01,0.01c-5.11,24.75,6.94,39.48-22.92,69.12l0.81,0.7
		c28.75-22.8,48.48-14.4,59.9-30.23c0.23,0.19,0.42,0.38,0.49,0.5C588.81,466.47,550.62,469.68,505.74,455.26"/>
	<path class="st0" d="M572.85,465.44l-0.22-0.31c-36.55,21.31-74.74-8.4-121.01-9.46c-11.6-0.27-46.31,1.83-78.17,38.86l8.46,2.42
		c10.53-18.28,26.76-31.5,41.49-35.18c42.09-10.52,42.92,28.73,89.66,29.33C547.76,491.56,571.48,466.82,572.85,465.44"/>
	<path class="st0" d="M231.3,201c-0.08,0.18-0.13,0.27-0.13,0.27S231.22,201.17,231.3,201"/>
	<path class="st0" d="M231.3,201c-0.08,0.18-0.13,0.27-0.13,0.27S231.22,201.17,231.3,201"/>
	<path class="st0" d="M610.59,201c0.08,0.18,0.14,0.27,0.14,0.27S610.67,201.17,610.59,201"/>
	<path class="st0" d="M504.09,265.28c-0.03,10.96-0.3,20.41-0.3,20.41c-0.68,8.96-0.82,17.96-4.97,24.07
		c-4.72,6.95-12.24,10.59-19.79,10.59l-0.3,0.1h-0.96l-0.28-0.1c-7.56,0-15.09-3.64-19.8-10.59c-4.15-6.11-4.31-15.11-5-24.07
		c0,0-0.25-9.34-0.29-20.21v-0.49c0.03-10.96,0.29-20.4,0.29-20.4c0.69-8.96,0.84-17.94,5-24.07c4.7-6.95,12.23-10.58,19.79-10.58
		l0.28-0.09h0.96l0.29,0.09c7.56,0,15.09,3.63,19.8,10.58c4.16,6.13,4.3,15.11,4.99,24.07c0,0,0.27,9.34,0.3,20.21V265.28z
		 M477.81,202.13h-0.63c-17.08,0-33.51,11-41.67,29.3c-4.16,9.31-5.1,21.44-5.12,33.11c0.01,11.66,0.96,23.78,5.12,33.08
		c8.16,18.33,24.59,30.84,41.67,30.84h0.63c17.07,0,33.5-12.51,41.66-30.84c4.15-9.3,5.1-21.42,5.12-33.08
		c-0.02-11.67-0.97-23.79-5.12-33.11C511.31,213.14,494.88,202.13,477.81,202.13"/>
	<path class="st0" d="M490.6,333.69c0,0-3.35,8.69-9.57,14.04c-3.42,2.93-8.48,3.7-12.5,4.17l-42.02,2.08h-9.29
		c0,0-7.04-0.39-7.42-6.94V199.81c0.38-6.55,7.42-6.94,7.42-6.94h9.29v-8.58h-56.19v8.58h9.28c0,0,7.04,0.39,7.42,6.94v147.23
		c-0.38,6.55-7.42,6.94-7.42,6.94h-9.28v8.59h56.19l60.84,0.23l7.48-27.15v-0.98L490.6,333.69z"/>
	<path class="st0" d="M358.57,218.32c0.32-5.46,6.2-5.79,6.2-5.79h7.74v-7.16h-46.89v7.16h7.75c0,0,5.87,0.34,6.2,5.79v94.14
		c-0.33,5.46-6.2,5.79-6.2,5.79h-7.75v7.16h46.89v-7.16h-7.74c0,0-5.88-0.33-6.2-5.79V218.32z"/>
</g>
</svg>
